<svg id="visual" viewBox="0 0 900 600" width="900" height="600" xmlns="http://www.w3.org/2000/svg" xmlns:xlink="http://www.w3.org/1999/xlink" version="1.1"><path d="M0 115L13.7 114C27.3 113 54.7 111 82 103C109.3 95 136.7 81 163.8 80C191 79 218 91 245.2 92C272.3 93 299.7 83 327 80C354.3 77 381.7 81 409 78C436.3 75 463.7 65 491 69C518.3 73 545.7 91 573 93C600.3 95 627.7 81 654.8 72C682 63 709 59 736.2 64C763.3 69 790.7 83 818 84C845.3 85 872.7 73 886.3 67L900 61L900 0L886.3 0C872.7 0 845.3 0 818 0C790.7 0 763.3 0 736.2 0C709 0 682 0 654.8 0C627.7 0 600.3 0 573 0C545.7 0 518.3 0 491 0C463.7 0 436.3 0 409 0C381.7 0 354.3 0 327 0C299.7 0 272.3 0 245.2 0C218 0 191 0 163.8 0C136.7 0 109.3 0 82 0C54.7 0 27.3 0 13.7 0L0 0Z" fill="#00126d"></path><path d="M0 241L13.7 230C27.3 219 54.7 197 82 181C109.3 165 136.7 155 163.8 155C191 155 218 165 245.2 162C272.3 159 299.7 143 327 149C354.3 155 381.7 183 409 181C436.3 179 463.7 147 491 142C518.3 137 545.7 159 573 166C600.3 173 627.7 165 654.8 159C682 153 709 149 736.2 153C763.3 157 790.7 169 818 168C845.3 167 872.7 153 886.3 146L900 139L900 59L886.3 65C872.7 71 845.3 83 818 82C790.7 81 763.3 67 736.2 62C709 57 682 61 654.8 70C627.7 79 600.3 93 573 91C545.7 89 518.3 71 491 67C463.7 63 436.3 73 409 76C381.7 79 354.3 75 327 78C299.7 81 272.3 91 245.2 90C218 89 191 77 163.8 78C136.7 79 109.3 93 82 101C54.7 109 27.3 111 13.7 112L0 113Z" fill="#20189a"></path><path d="M0 373L13.7 374C27.3 375 54.7 377 82 384C109.3 391 136.7 403 163.8 397C191 391 218 367 245.2 367C272.3 367 299.7 391 327 387C354.3 383 381.7 351 409 330C436.3 309 463.7 299 491 314C518.3 329 545.7 369 573 370C600.3 371 627.7 333 654.8 331C682 329 709 363 736.2 381C763.3 399 790.7 401 818 382C845.3 363 872.7 323 886.3 303L900 283L900 137L886.3 144C872.7 151 845.3 165 818 166C790.7 167 763.3 155 736.2 151C709 147 682 151 654.8 157C627.7 163 600.3 171 573 164C545.7 157 518.3 135 491 140C463.7 145 436.3 177 409 179C381.7 181 354.3 153 327 147C299.7 141 272.3 157 245.2 160C218 163 191 153 163.8 153C136.7 153 109.3 163 82 179C54.7 195 27.3 217 13.7 228L0 239Z" fill="#4238b3"></path><path d="M0 415L13.7 422C27.3 429 54.7 443 82 453C109.3 463 136.7 469 163.8 467C191 465 218 455 245.2 460C272.3 465 299.7 485 327 476C354.3 467 381.7 429 409 404C436.3 379 463.7 367 491 387C518.3 407 545.7 459 573 457C600.3 455 627.7 399 654.8 397C682 395 709 447 736.2 466C763.3 485 790.7 471 818 448C845.3 425 872.7 393 886.3 377L900 361L900 281L886.3 301C872.7 321 845.3 361 818 380C790.7 399 763.3 397 736.2 379C709 361 682 327 654.8 329C627.7 331 600.3 369 573 368C545.7 367 518.3 327 491 312C463.7 297 436.3 307 409 328C381.7 349 354.3 381 327 385C299.7 389 272.3 365 245.2 365C218 365 191 389 163.8 395C136.7 401 109.3 389 82 382C54.7 375 27.3 373 13.7 372L0 371Z" fill="#20189a"></path><path d="M0 601L13.7 601C27.3 601 54.7 601 82 601C109.3 601 136.7 601 163.8 601C191 601 218 601 245.2 601C272.3 601 299.7 601 327 601C354.3 601 381.7 601 409 601C436.3 601 463.7 601 491 601C518.3 601 545.7 601 573 601C600.3 601 627.7 601 654.8 601C682 601 709 601 736.2 601C763.3 601 790.7 601 818 601C845.3 601 872.7 601 886.3 601L900 601L900 359L886.3 375C872.7 391 845.3 423 818 446C790.7 469 763.3 483 736.2 464C709 445 682 393 654.8 395C627.7 397 600.3 453 573 455C545.7 457 518.3 405 491 385C463.7 365 436.3 377 409 402C381.7 427 354.3 465 327 474C299.7 483 272.3 463 245.2 458C218 453 191 463 163.8 465C136.7 467 109.3 461 82 451C54.7 441 27.3 427 13.7 420L0 413Z" fill="#00126d"></path></svg>