<svg id="visual" viewBox="0 0 900 600" width="900" height="600" xmlns="http://www.w3.org/2000/svg" xmlns:xlink="http://www.w3.org/1999/xlink" version="1.1"><rect x="0" y="0" width="900" height="600" fill="#ffffff"></rect><defs><linearGradient id="grad1_0" x1="33.3%" y1="0%" x2="100%" y2="100%"><stop offset="20%" stop-color="#0f0b91" stop-opacity="1"></stop><stop offset="80%" stop-color="#0f0b91" stop-opacity="1"></stop></linearGradient></defs><defs><linearGradient id="grad1_1" x1="33.3%" y1="0%" x2="100%" y2="100%"><stop offset="20%" stop-color="#0f0b91" stop-opacity="1"></stop><stop offset="80%" stop-color="#ffffff" stop-opacity="1"></stop></linearGradient></defs><defs><linearGradient id="grad2_0" x1="0%" y1="0%" x2="66.7%" y2="100%"><stop offset="20%" stop-color="#0f0b91" stop-opacity="1"></stop><stop offset="80%" stop-color="#0f0b91" stop-opacity="1"></stop></linearGradient></defs><defs><linearGradient id="grad2_1" x1="0%" y1="0%" x2="66.7%" y2="100%"><stop offset="20%" stop-color="#ffffff" stop-opacity="1"></stop><stop offset="80%" stop-color="#0f0b91" stop-opacity="1"></stop></linearGradient></defs><g transform="translate(900, 0)"><path d="M0 405.6C-19 363.2 -38 320.8 -74.5 326.6C-111 332.4 -165 386.4 -176 365.5C-187 344.6 -154.9 248.8 -179.6 225.2C-204.2 201.6 -285.6 250.1 -301 240C-316.4 230 -265.7 161.3 -264 127.1C-262.3 93 -309.5 93.3 -341.2 77.9C-373 62.4 -389.3 31.2 -405.6 0L0 0Z" fill="#9981c9"></path><path d="M0 202.8C-9.5 181.6 -19 160.4 -37.3 163.3C-55.5 166.2 -82.5 193.2 -88 182.7C-93.5 172.3 -77.4 124.4 -89.8 112.6C-102.1 100.8 -142.8 125.1 -150.5 120C-158.2 115 -132.9 80.6 -132 63.6C-131.1 46.5 -154.7 46.7 -170.6 38.9C-186.5 31.2 -194.7 15.6 -202.8 0L0 0Z" fill="#0f0b91"></path></g><g transform="translate(0, 600)"><path d="M0 -405.6C27.3 -380.9 54.5 -356.1 75.9 -332.5C97.2 -308.8 112.6 -286.2 132.3 -274.8C152 -263.4 176 -263.1 207.6 -260.3C239.2 -257.6 278.5 -252.4 287.7 -229.4C297 -206.5 276.2 -165.7 294.6 -141.9C313 -118 370.4 -111.1 395.5 -90.3C420.5 -69.4 413 -34.7 405.6 0L0 0Z" fill="#9981c9"></path><path d="M0 -202.8C13.6 -190.4 27.3 -178.1 37.9 -166.2C48.6 -154.4 56.3 -143.1 66.2 -137.4C76 -131.7 88 -131.5 103.8 -130.2C119.6 -128.8 139.2 -126.2 143.9 -114.7C148.5 -103.2 138.1 -82.9 147.3 -70.9C156.5 -59 185.2 -55.5 197.7 -45.1C210.2 -34.7 206.5 -17.4 202.8 0L0 0Z" fill="#0f0b91"></path></g></svg>