<svg id="visual" viewBox="0 0 960 540" width="960" height="540" xmlns="http://www.w3.org/2000/svg" xmlns:xlink="http://www.w3.org/1999/xlink" version="1.1"><rect x="0" y="0" width="960" height="540" fill="#ffffff"></rect><path d="M0 78L17.8 78.2C35.7 78.3 71.3 78.7 106.8 84.2C142.3 89.7 177.7 100.3 213.2 109.7C248.7 119 284.3 127 320 131.2C355.7 135.3 391.3 135.7 426.8 132.8C462.3 130 497.7 124 533.2 118.7C568.7 113.3 604.3 108.7 640 106.5C675.7 104.3 711.3 104.7 746.8 100C782.3 95.3 817.7 85.7 853.2 90.2C888.7 94.7 924.3 113.3 942.2 122.7L960 132L960 0L942.2 0C924.3 0 888.7 0 853.2 0C817.7 0 782.3 0 746.8 0C711.3 0 675.7 0 640 0C604.3 0 568.7 0 533.2 0C497.7 0 462.3 0 426.8 0C391.3 0 355.7 0 320 0C284.3 0 248.7 0 213.2 0C177.7 0 142.3 0 106.8 0C71.3 0 35.7 0 17.8 0L0 0Z" fill="#0f0b91" stroke-linecap="round" stroke-linejoin="miter"></path></svg>